<?xml version="1.0" encoding="UTF-8"?>
<svg width="36px" height="35px" viewBox="0 0 36 35" version="1.1" xmlns="http://www.w3.org/2000/svg" xmlns:xlink="http://www.w3.org/1999/xlink">
    <title>Group 38</title>
    <g id="updated" stroke="none" stroke-width="1" fill="none" fill-rule="evenodd">
        <g id="Integrated-Fulfilment" transform="translate(-631.000000, -1688.000000)" fill-rule="nonzero">
            <g id="Group-34" transform="translate(70.000000, 1402.000000)">
                <g id="Group-58" transform="translate(545.000000, 0.000000)">
                    <g id="Group-38" transform="translate(16.000000, 286.000000)">
                        <path d="M12.061309,16.1730227 C12.399966,16.1238214 12.7312684,16.3001372 12.8796981,16.6084729 C13.0284007,16.9167876 12.9597875,17.2858079 12.7102191,17.5200722 L12.7102191,17.5200722 L9.93049534,20.299796 L14.7064726,25.0637371 L17.4861964,22.2837334 C17.6072928,22.1579905 17.766653,22.0759886 17.9394139,22.0511136 C18.2780709,22.0019123 18.6093733,22.1782281 18.757803,22.4865638 C18.9065056,22.7948785 18.8378925,23.1638988 18.588324,23.3981631 L18.588324,23.3981631 L15.8086003,26.1778869 L17.0208938,27.3781442 C17.1695963,27.5252023 17.2535136,27.7258424 17.2535136,27.9352296 C17.2535136,28.1446099 17.1695963,28.3452499 17.0208938,28.4925879 L17.0208938,28.4925879 L11.5345029,33.9786988 C10.6231135,34.8902982 9.1273404,34.8902982 8.21602095,33.9786988 L8.21602095,33.9786988 L5.1665332,30.9418071 L1.34589131,34.7624489 C1.19909911,34.9133348 0.997640338,34.9988948 0.787161444,34.9999942 C0.576682549,35.000807 0.374677953,34.9168897 0.226521189,34.7673684 C0.0783644243,34.6175741 -0.00309478461,34.4147438 8.99915572e-05,34.203992 C0.00346730325,33.9935131 0.0912123281,33.793146 0.243742698,33.6479983 L0.243742698,33.6479983 L4.06438459,29.8273564 L1.00286067,26.7781485 C0.0915412233,25.8664792 0.0915412233,24.3586699 1.00286067,23.4470706 L1.00286067,23.4470706 L6.48925149,17.9609596 C6.63494504,17.8136286 6.83312885,17.729707 7.04032579,17.7280669 C7.25163042,17.7266953 7.45499958,17.8103467 7.60370217,17.9609596 L7.60370217,17.9609596 L8.82831174,19.1855692 L11.6080355,16.4055655 C11.7291319,16.2798226 11.8884921,16.1978207 12.061253,16.1729457 Z M7.05266986,19.6262047 L2.11756328,24.5615912 C1.8010262,24.8781003 1.8010262,25.3469298 2.11756328,25.6637398 L2.11756328,25.6637398 L9.31826753,32.8644441 C9.6348466,33.1809812 10.1159152,33.1812541 10.4324523,32.8644441 L10.4324523,32.8644441 L15.3555227,27.9416536 L7.05266986,19.6262047 Z" id="Combined-Shape" fill="#00D2F6"></path>
                        <path d="M28.3661106,0.00817640866 C28.7047677,-0.0410249048 29.03607,0.135290882 29.1844997,0.443626577 C29.3332023,0.751941279 29.2645892,1.12096163 29.0150208,1.35522594 L29.0150208,1.35522594 L26.235297,4.1349497 L31.0112743,8.89889084 L33.7909981,6.11888717 C33.9120945,5.99314426 34.0714546,5.91114231 34.2442156,5.88626734 C34.5828726,5.83706602 34.914175,6.01338181 35.0626046,6.32171751 C35.2113072,6.63003221 35.1426941,6.99905256 34.8931257,7.23331687 L34.8931257,7.23331687 L32.1134019,10.0130406 L33.3256954,11.213298 C33.474398,11.3603561 33.5583152,11.5609961 33.5583152,11.7703833 C33.5583152,11.9797636 33.474398,12.1804036 33.3256954,12.3277416 L33.3256954,12.3277416 L27.8393046,17.8138525 C26.9279152,18.7254519 25.4321421,18.7254519 24.5208226,17.8138525 L24.5208226,17.8138525 L21.4713349,14.7769608 L17.650693,18.5976027 C17.5039008,18.7484886 17.302442,18.8340485 17.0919631,18.8351479 C16.8814842,18.8359607 16.6794796,18.7520434 16.5313228,18.6025221 C16.3831661,18.4527279 16.3017069,18.2498975 16.3048916,18.0391457 C16.308269,17.8286668 16.396014,17.6282997 16.5485444,17.483152 L16.5485444,17.483152 L20.3691862,13.6625101 L17.3076623,10.6133023 C16.3963429,9.70163291 16.3963429,8.19382364 17.3076623,7.28222428 L17.3076623,7.28222428 L22.7940531,1.79611337 C22.9397467,1.64878235 23.1379305,1.56486069 23.3451274,1.56322062 C23.5564321,1.56184906 23.7598012,1.64550039 23.9085038,1.79611337 L23.9085038,1.79611337 L25.1331134,3.02072294 L27.9128372,0.240719269 C28.0339335,0.114976358 28.1932937,0.0329744025 28.3660547,0.0080994332 Z M23.3574715,3.46135845 L18.4223649,8.39674494 C18.1058279,8.71325403 18.1058279,9.18208356 18.4223649,9.49889355 L18.4223649,9.49889355 L25.6230692,16.6995978 C25.9396483,17.0161349 26.4207169,17.0164078 26.737254,16.6995978 L26.737254,16.6995978 L31.6603244,11.7768073 L23.3574715,3.46135845 Z" id="Combined-Shape-Copy" fill="#111827" transform="translate(25.722622, 9.417577) scale(-1, -1) translate(-25.722622, -9.417577) "></path>
                    </g>
                </g>
            </g>
        </g>
    </g>
</svg>