<?xml version="1.0" encoding="UTF-8"?>
<svg width="34px" height="35px" viewBox="0 0 34 35" version="1.1" xmlns="http://www.w3.org/2000/svg" xmlns:xlink="http://www.w3.org/1999/xlink">
    <title>Group 39</title>
    <g id="updated" stroke="none" stroke-width="1" fill="none" fill-rule="evenodd">
        <g id="Integrated-Fulfilment" transform="translate(-903.000000, -1688.000000)" fill-rule="nonzero">
            <g id="Group-34" transform="translate(70.000000, 1402.000000)">
                <g id="Group-58" transform="translate(545.000000, 0.000000)">
                    <g id="Group-39" transform="translate(288.500000, 286.000000)">
                        <path d="M15.6167791,0.000488287651 C15.8718736,0.00634907877 16.1144137,0.100277861 16.3015021,0.263677452 L16.3902268,0.351080384 C20.9215537,5.38510616 30.17515,6.74130393 30.2679262,6.7539991 C30.7943206,6.82843758 31.1825107,7.27181214 31.1726898,7.78720014 C31.1319688,9.85628977 30.9720542,11.7650023 30.7208321,13.5314004 C30.4046405,13.2403841 30.0718986,12.9737806 29.7261941,12.7293899 C29.9180904,11.2076825 30.0411401,9.57847363 30.0775175,7.83138822 C29.4150088,7.73201192 20.2663888,6.27118027 15.5942026,1.10067499 C15.164197,1.53280566 9.2403693,7.33831926 1.68402025,7.33831926 C1.49236774,7.33831926 1.2987652,7.33441296 1.1080877,7.32684473 C1.10381681,7.43570033 1.09665005,7.6624099 1.09480685,7.99045152 L1.09455105,8.25522435 C1.10087949,10.0491808 1.27368362,14.0362478 2.49385587,18.4457405 C4.64700909,26.2264675 9.08700479,31.5731626 15.3346492,33.9071932 C15.3619621,33.8979431 18.2748752,33.1259329 21.4794797,30.2782706 C21.9106729,30.3959534 22.353285,30.4840871 22.8056846,30.5419491 C19.1851997,34.0156196 15.7515797,34.9270009 15.5999652,34.9658196 C15.5110953,34.9890136 15.4217378,35 15.3304304,35 C15.2022537,35 15.0728583,34.9772966 14.9512754,34.9323741 C8.36118903,32.4704668 3.68900278,26.8703934 1.43922329,18.7377868 C0.19898481,14.255691 0.0104651918,10.2079974 0.000443620568,8.32045623 L0.000832531559,7.93294011 C0.00408888047,7.50564211 0.0158913449,7.25149389 0.0180796606,7.20638566 C0.0451425153,6.66120351 0.511229875,6.23199788 1.06665591,6.23199788 C1.08398988,6.23199788 1.10156824,6.23248614 1.11914659,6.23321859 C1.30859908,6.24127557 1.49610154,6.24518187 1.68360399,6.24518187 C8.57245775,6.24518187 14.1806693,0.953472715 14.7773278,0.370388675 L14.8294013,0.31885418 C14.997875,0.14725193 15.2258871,0.0355647519 15.4633258,0.00715621626 L15.5825987,0 L15.6167791,0.000488287651 Z M11.2107839,26.7972271 C11.5127878,26.7972271 11.7576661,27.0421053 11.7576661,27.3441092 C11.7576661,27.6461132 11.5127878,27.8909914 11.2107839,27.8909914 C10.9087799,27.8909914 10.6639017,27.6461132 10.6639017,27.3441092 C10.6639017,27.0421053 10.9087799,26.7972271 11.2107839,26.7972271 Z M12.952123,6.71066731 L13.0176826,6.78446472 C13.1975849,7.02772103 13.1465593,7.37001302 12.9033936,7.54994663 C11.1314328,8.86146382 8.34552132,10.4239843 5.13329172,10.4239843 C5.12914104,10.4242285 5.12523473,10.4242285 5.12132843,10.4239843 C5.04515869,10.4239843 4.99730618,10.4596291 4.97508902,10.4806257 C4.96190551,10.4933217 4.94286226,10.5154572 4.93148693,10.5458757 L4.92186582,10.597571 L4.92193677,10.6823449 C4.92579827,11.2707297 5.00373296,14.671236 6.24269563,18.4939245 C7.12970726,21.2326479 8.41191157,23.5344905 10.0538081,25.3352641 C10.2571789,25.5583858 10.2413099,25.9043404 10.0181633,26.1077118 C9.91318062,26.2031749 9.78134765,26.2505386 9.64975217,26.2505386 C9.50131273,26.2505386 9.35336704,26.1904754 9.24569687,26.0723113 C7.49811147,24.1554737 6.13753113,21.7191917 5.20220637,18.8309664 C3.94338777,14.9459939 3.83693248,11.4596157 3.82893056,10.7254771 L3.82843836,10.5889833 C3.83063839,10.2483914 3.96930896,9.92904969 4.21882473,9.69003406 C4.4270596,9.49081537 4.69125592,9.36836402 4.97512065,9.33744361 L5.11852402,9.32967933 L5.13707927,9.32967933 C8.04792992,9.32967933 10.6131511,7.88384788 12.2527975,6.67020697 C12.4687115,6.51091599 12.7631549,6.53314838 12.952123,6.71066731 Z" id="Combined-Shape" fill="#00D2F6"></path>
                        <path d="M32.8129421,20.7815232 C32.8134303,15.9494599 28.8953907,12.0314085 24.0640774,12.0314085 L24.0631008,12.0314085 C19.2305375,12.0311644 15.3129861,15.9489599 15.3129861,20.7815232 C15.3129861,25.6138366 19.2297874,29.5316379 24.0631008,29.5316379 C28.8951641,29.5316379 32.8132155,25.6138366 32.8132155,20.7815232 L32.8129421,20.7815232 Z M29.7204015,25.6651497 L28.6657002,24.6111984 C28.4523162,24.3983081 28.1058804,24.3980581 27.8925026,24.6114425 C27.6791185,24.8250703 27.6791185,25.1715061 27.8927467,25.3851402 L28.947448,26.4390915 C28.9921261,26.4837696 29.0433993,26.51673 29.09735,26.5426054 C27.8710214,27.6156194 26.3011883,28.3036284 24.5762907,28.4186299 C24.5965547,28.3610123 24.6097387,28.2999784 24.6097387,28.2352775 L24.6097387,26.744758 C24.6097387,26.442754 24.3648604,26.1978758 24.0628565,26.1978758 C23.7608525,26.1978758 23.5159743,26.442754 23.5159743,26.744758 L23.5159743,28.2352775 C23.5159743,28.2999784 23.5291582,28.3610104 23.549666,28.4183862 C21.8245184,28.3036409 20.2549353,27.6153757 19.0286067,26.5423616 C19.0825625,26.5164825 19.1338331,26.4832789 19.1787525,26.4385977 L20.2329538,25.3841464 C20.4463378,25.1705186 20.4463378,24.8240828 20.2327097,24.6109488 C20.0190819,24.3975647 19.6728898,24.3975647 19.459262,24.6109488 L18.4050607,25.6654001 C18.3603826,25.7100782 18.3271784,25.7615951 18.3012968,25.8153021 C17.2285328,24.5889735 16.5402737,23.0193904 16.4255222,21.2944928 C16.4831399,21.3147568 16.5441738,21.3281845 16.6091184,21.3281845 L18.0996379,21.3281845 C18.4016419,21.3281845 18.6465201,21.0833063 18.6465201,20.7813023 C18.6465201,20.4792984 18.4016419,20.2344202 18.0996379,20.2344202 L16.6091184,20.2344202 C16.5444176,20.2344202 16.4831417,20.2478478 16.4255222,20.2683562 C16.5361174,18.5867092 17.1887197,17.011001 18.2995468,15.7436094 C18.3256703,15.7987858 18.3596063,15.8517671 18.4055045,15.8974177 L19.4599558,16.951119 C19.5666447,17.0575641 19.7065403,17.1110336 19.8464358,17.1110336 C19.9865752,17.1110336 20.1264708,17.057566 20.2331597,16.9508752 C20.4465437,16.7372474 20.4465437,16.3908116 20.2329155,16.1771776 L19.1784642,15.1234763 C19.1328092,15.0778213 19.0803192,15.0441315 19.0251434,15.0180062 C20.2924726,13.9069291 21.8681807,13.2542955 23.5500778,13.1437316 C23.5290812,13.2015936 23.5158973,13.2626269 23.5158973,13.3273277 L23.5158973,14.8180973 C23.5158973,15.1201012 23.7607755,15.3649794 24.0627795,15.3649794 C24.3647834,15.3649794 24.6096617,15.1201012 24.6096617,14.8180973 L24.6096617,13.3273277 C24.6096617,13.2626269 24.5964777,13.2013511 24.5757256,13.1439753 C26.3164984,13.2582331 27.9443947,13.9527984 29.2337241,15.136439 L24.2131583,19.7238741 L21.8298146,17.6430343 C21.6020304,17.4443005 21.2568071,17.4674945 21.0580545,17.6952812 C20.8595644,17.9228217 20.8830022,18.2682888 21.1103014,18.4670414 L23.8615875,20.8689479 C23.9648576,20.9590365 24.0930343,21.0037121 24.2212109,21.0037121 C24.3535377,21.0037121 24.4858644,20.9558602 24.5901095,20.8606415 L29.9866803,15.9296394 C31.0010686,17.1637805 31.5950764,18.6681753 31.7000777,20.2680712 C31.6427039,20.2478072 31.5814262,20.2343795 31.5164816,20.2343795 L30.025712,20.2343795 C29.7237081,20.2343795 29.4788299,20.4792577 29.4788299,20.7812617 C29.4788299,21.0832657 29.7237081,21.3281439 30.025712,21.3281439 L31.5164816,21.3281439 C31.5811824,21.3281439 31.6424582,21.3147162 31.7000777,21.2942078 C31.5853325,23.0193554 30.8970672,24.5889385 29.8243031,25.8152671 C29.7981797,25.761067 29.7649761,25.7097969 29.7202955,25.6651213 L29.7204015,25.6651497 Z" id="Shape" fill="#111827"></path>
                    </g>
                </g>
            </g>
        </g>
    </g>
</svg>