<?xml version="1.0" encoding="UTF-8"?>
<svg width="36px" height="35px" viewBox="0 0 36 35" version="1.1" xmlns="http://www.w3.org/2000/svg" xmlns:xlink="http://www.w3.org/1999/xlink">
    <title>Group 40</title>
    <g id="updated" stroke="none" stroke-width="1" fill="none" fill-rule="evenodd">
        <g id="Integrated-Fulfilment" transform="translate(-631.000000, -1954.000000)" fill-rule="nonzero">
            <g id="Group-34" transform="translate(70.000000, 1402.000000)">
                <g id="Group-58" transform="translate(545.000000, 0.000000)">
                    <g id="Group-40" transform="translate(16.000000, 552.000000)">
                        <path d="M34.1127023,21.4342365 C33.5269571,20.9618859 32.7668091,20.7848804 32.025193,20.946764 L18.4908507,24.1249754 C18.5440291,23.9310327 18.5813087,23.7308304 18.5813087,23.5207181 C18.5813087,22.2464973 17.5453953,21.2108508 16.2719753,21.2108508 L8.08837286,21.2105901 C8.00260619,20.3242945 7.26200452,19.6264561 6.35355325,19.6264561 L1.75177007,19.6264561 C0.78592747,19.6264561 0,20.4123835 0,21.3782261 L0,33.2482201 C0,34.2140627 0.78592747,34.9999951 1.75177007,34.9999951 L6.35355325,34.9999951 C7.3472907,35.0023363 8.1444295,34.165547 8.10532332,33.1746791 L12.6932925,33.622525 C12.8619496,33.6389476 13.0313942,33.6470291 13.2008387,33.6470291 C13.8921372,33.6470291 14.5811668,33.5109516 15.2206129,33.2453232 L33.5110945,25.6449768 C34.437297,25.2596941 35.0350343,24.363215 35.0350343,23.3606686 C35.0350343,22.6085753 34.6987545,21.9065994 34.1125021,21.4342554 L34.1127023,21.4342365 Z M6.93724304,33.2481739 C6.93724304,33.5703728 6.67499805,33.8320972 6.35331968,33.8320972 L1.7515365,33.8320972 C1.42985813,33.8320972 1.16761314,33.5703728 1.16761314,33.2481739 L1.16761314,21.3781799 C1.16761314,21.055981 1.42985813,20.7942565 1.7515365,20.7942565 L6.35331968,20.7942565 C6.67499805,20.7942565 6.93724304,21.055981 6.93724304,21.3781799 L6.93724304,33.2481739 Z M33.0623076,24.5667351 L14.7718261,32.1670815 C14.1529741,32.4241145 13.47258,32.5244759 12.8063067,32.460865 L8.10468934,32.0018078 L8.10468934,22.3787509 L16.2709409,22.3787509 C16.9004837,22.3787509 17.4129615,22.891509 17.4129615,23.5207715 C17.4129615,23.9529816 17.1681808,24.325518 16.8133957,24.5191804 L16.2031457,24.6622916 L14.5277862,24.6622916 C14.2055873,24.6622916 13.9438628,24.9232353 13.9438628,25.246215 C13.9438628,25.5691947 14.2055873,25.8301383 14.5277862,25.8301383 L16.2706806,25.8301383 C16.6064332,25.8301383 16.9234202,25.7542817 17.2114979,25.6252446 L32.2827266,22.0860018 C32.6698377,22.0007623 33.0705226,22.0953859 33.3799019,22.3440759 C33.6893279,22.5927672 33.8668539,22.9642358 33.8668539,23.3607031 C33.8668539,23.8896242 33.550908,24.3632495 33.0621074,24.5658542 L33.0623076,24.5667351 Z" id="Shape" fill="#00D2F6"></path>
                        <path d="M14.6049909,11.6837175 C14.9073764,11.8758383 15.0955933,12.2418348 15.0955933,12.6396167 L15.0955933,15.2683396 C15.0955933,15.489136 15.2199389,15.6911601 15.4167511,15.7904805 L17.7349602,16.9583272 C17.8173368,16.9997751 17.9072676,17.0201083 17.9977257,17.0201083 C18.0881838,17.0201083 18.1775941,16.9997751 18.2604912,16.9583272 L20.5792342,15.7904805 C20.7760464,15.6911601 20.900392,15.489136 20.900392,15.2683396 L20.900392,12.6057825 C20.900392,12.2296224 21.1104977,11.8677701 21.4632007,11.6376042 C23.261084,10.4616827 24.3343018,8.47974673 24.3343018,6.3356469 C24.3343018,4.53589502 23.5653248,2.81515631 22.2233021,1.61340867 C20.8826141,0.412995722 19.0776569,-0.161050987 17.2774379,0.0391513065 C14.4487797,0.352227653 12.1138871,2.62116028 11.7236261,5.43473658 C11.3766622,7.94093562 12.4803907,10.3362893 14.6052044,11.6837842 L14.6049909,11.6837175 Z M19.7317712,14.9080422 L17.9974855,15.7815915 L16.2631997,14.9080422 L16.2631997,14.3136949 L19.7318379,14.3136949 L19.7317712,14.9080422 Z M12.8808487,5.59396414 C13.1978357,3.30258216 15.1008252,1.45464825 17.4057542,1.1999242 C18.9023331,1.0328287 20.3352476,1.49006404 21.4442349,2.48348784 C22.5385406,3.46387847 23.1663083,4.86769695 23.1663083,6.33558017 C23.1663083,8.0839468 22.2904232,9.70071378 20.8230739,10.6600164 C20.1398502,11.1073418 19.7323718,11.8348702 19.7323718,12.6057158 L19.7323718,13.1463688 L18.5820094,13.1463688 L18.5817488,7.25915339 L19.5410514,6.30038461 C19.7694088,6.0720272 19.7694088,5.70290755 19.5410514,5.47481708 C19.312694,5.24645967 18.9435744,5.24645967 18.7154839,5.47481708 L17.9978254,6.19247557 L17.2801669,5.47481708 C17.0518095,5.24645967 16.6826899,5.24645967 16.4545994,5.47481708 C16.226242,5.70317449 16.226242,6.07229413 16.4545994,6.30038461 L17.4139021,7.25968726 L17.4139021,13.1461018 L16.2635397,13.1461018 L16.2635397,12.6393364 C16.2635397,11.8341228 15.8774696,11.1083895 15.2312299,10.6977746 C13.4974781,9.59772972 12.5970349,7.64208699 12.8809217,5.59415099 L12.8808487,5.59396414 Z M7.27958896,7.60226008 L9.93540585,7.60226008 C10.2576047,7.60226008 10.5193292,7.34131641 10.5193292,7.01833672 C10.5193292,6.69535704 10.2576047,6.43441337 9.93540585,6.43441337 L7.27958896,6.43441337 C6.95739006,6.43441337 6.6956656,6.69535704 6.6956656,7.01833672 C6.6956656,7.34131641 6.95739006,7.60226008 7.27958896,7.60226008 Z M9.96563639,10.6600164 L7.54519067,11.753855 C7.25140715,11.887063 7.12080185,12.232205 7.25322899,12.5265024 C7.35072083,12.7420869 7.56317551,12.869816 7.78580046,12.869816 C7.86634851,12.869816 7.94820456,12.8533934 8.02588972,12.8179409 L10.4463354,11.7241023 C10.740119,11.5908944 10.8707243,11.2457523 10.7382971,10.9514549 C10.60587,10.6576714 10.2589061,10.5262853 9.96564974,10.6600138 L9.96563639,10.6600164 Z M7.54585801,2.28188413 L9.96630374,3.37572273 C10.0439889,3.41143615 10.1258383,3.42759781 10.206393,3.42759781 C10.428751,3.42759781 10.6414659,3.29960181 10.7389645,3.08428425 C10.8721724,2.78997353 10.7413106,2.44431759 10.4470028,2.31163686 L8.02655706,1.21779826 C7.73355433,1.08459033 7.38659041,1.21545216 7.25390968,1.50923942 C7.12070174,1.80355013 7.25156357,2.14920607 7.54587135,2.2818868 L7.54585801,2.28188413 Z M26.0592314,6.43441337 C25.7362517,6.43441337 25.4753081,6.69535704 25.4753081,7.01833672 C25.4753081,7.34131641 25.7362517,7.60226008 26.0592314,7.60226008 L28.7150483,7.60226008 C29.038028,7.60226008 29.2989717,7.34131641 29.2989717,7.01833672 C29.2989717,6.69535704 29.038028,6.43441337 28.7150483,6.43441337 L26.0592314,6.43441337 Z M25.5473809,11.723758 L27.9678266,12.8175966 C28.2545764,12.9489826 28.6072727,12.8228102 28.740474,12.5261554 C28.8736819,12.2318447 28.7428202,11.8861888 28.4490328,11.753508 L26.0285871,10.6596694 C25.7342764,10.525941 25.3886205,10.6573233 25.2559397,10.9511106 C25.1227318,11.2454213 25.2535936,11.5910772 25.5473809,11.723758 L25.5473809,11.723758 Z M25.7889583,3.42757512 C25.8695064,3.42757512 25.9505816,3.41115253 26.0290476,3.37570004 L28.4494933,2.28186144 C28.7432768,2.14865351 28.8738821,1.80351143 28.7409345,1.50921406 C28.6077265,1.21543054 28.2633719,1.08482524 27.9682871,1.21777291 L25.5478414,2.3116115 C25.2540578,2.44481944 25.1234525,2.78996152 25.2564002,3.08425889 C25.353892,3.29984339 25.5663467,3.42757512 25.7889717,3.42757512 L25.7889583,3.42757512 Z" id="Combined-Shape" fill="#111827"></path>
                    </g>
                </g>
            </g>
        </g>
    </g>
</svg>