<?xml version="1.0" encoding="UTF-8"?>
<svg width="31px" height="35px" viewBox="0 0 31 35" version="1.1" xmlns="http://www.w3.org/2000/svg" xmlns:xlink="http://www.w3.org/1999/xlink">
    <title>Group 37</title>
    <g id="updated" stroke="none" stroke-width="1" fill="none" fill-rule="evenodd">
        <g id="Integrated-Fulfilment" transform="translate(-903.000000, -1422.000000)" fill-rule="nonzero">
            <g id="Group-34" transform="translate(70.000000, 1402.000000)">
                <g id="Group-58" transform="translate(545.000000, 0.000000)">
                    <g id="Group-37" transform="translate(288.500000, 20.000000)">
                        <path d="M12.6206922,12.7281962 C13.9625235,12.7289286 15.0543512,13.8217115 15.0543512,15.1642928 L15.0543512,17.965082 C15.2381913,17.9189388 15.4303315,17.8945247 15.6280905,17.8945247 C16.451852,17.8945247 17.1786747,18.3193369 17.6032431,18.9621647 C17.8989035,18.8288628 18.2265456,18.7543992 18.5710067,18.7543992 C19.6340216,18.7543992 20.5495344,19.4014083 20.9482274,20.3244837 C21.1945684,20.2370825 21.4594658,20.1894693 21.7353635,20.1894693 C23.1157578,20.1894693 24.238836,21.3181726 24.238836,22.7056295 L24.238836,29.5157248 C24.2383477,32.5397046 21.7795516,34.9996765 18.7575718,34.9996765 L15.6829694,34.9996146 C12.9202433,35.0303769 10.2905815,33.2164022 9.33600561,30.6235534 L7.85867244,26.7453117 L6.22189954,23.6571435 C6.21433131,23.6429833 6.20725059,23.6283343 6.20041487,23.6139297 C5.65499474,22.4352257 6.11301365,21.023081 7.24317946,20.3990098 C8.18388012,19.8584772 9.45464789,20.0647738 10.1844081,20.8582474 L10.1844081,15.1642928 C10.1573084,13.854712 11.3111114,12.7003833 12.6206922,12.7281962 Z M12.6193625,14.5230297 C12.2748765,14.515835 11.971666,14.8197948 11.9789786,15.1642934 L11.9789786,23.8681652 C11.9789786,24.2673395 11.7152999,24.6184257 11.3319695,24.7297397 C10.9486642,24.8413163 10.5377709,24.6860379 10.3238929,24.3491219 L9.01012455,22.281218 C8.85631615,21.9457633 8.43614152,21.7819422 8.11042446,21.9704199 C7.80646396,22.138391 7.68170597,22.5182775 7.82111417,22.8427446 L9.47000748,25.9539256 C9.48734148,25.9866411 9.50247856,26.020089 9.5156625,26.0547583 L11.0127459,29.9847507 C11.7463812,31.9107777 13.6229075,33.2047958 15.6824988,33.2047958 L18.7569793,33.2047958 C20.7895077,33.2047958 22.4430934,31.5497726 22.4430934,29.5155567 L22.4430934,22.7054614 C22.4430934,22.3077496 22.1252202,21.9842638 21.7345834,21.9842638 C21.417929,21.9842638 21.1603567,22.247205 21.1603567,22.5702095 L21.1603567,24.5314244 C21.1603567,25.0270376 20.7584948,25.4288745 20.2629066,25.4288745 C19.7672934,25.4288745 19.3654565,25.0270126 19.3654565,24.5314244 L19.3654565,21.3578175 C19.3654565,20.9120113 19.0087641,20.5491812 18.5702579,20.5491812 C18.2536035,20.5491812 17.9960311,20.8121224 17.9960311,21.1351269 L17.9960311,24.3446718 C17.9960311,24.840285 17.5941693,25.2421219 17.0985811,25.2421219 C16.6029929,25.2421219 16.201131,24.84026 16.201131,24.3446718 L16.201131,20.2748024 C16.201131,19.9520416 15.9438024,19.6893442 15.6273918,19.6893442 C15.3109811,19.6893442 15.0536525,19.9520416 15.0536525,20.2748024 L15.0536525,24.2762959 C15.0536525,24.7719091 14.6517906,25.1737459 14.1562024,25.1737459 C13.6606142,25.1737459 13.2587524,24.7718841 13.2587524,24.2762959 L13.2589965,15.1642934 C13.2589965,14.8110197 12.97213,14.5234094 12.6193625,14.5230297 Z M8.28105335,14.2088238 C8.77666654,14.2088238 9.17850341,14.6106857 9.17850341,15.1062738 C9.17850341,15.601887 8.77664153,16.0037239 8.28105335,16.0037239 L7.36354052,16.0037239 C6.86792733,16.0037239 6.46609046,15.601862 6.46609046,15.1062738 C6.46609046,14.6106607 6.86795233,14.2088238 7.36354052,14.2088238 L8.28105335,14.2088238 Z M17.760561,14.2088238 C18.2561742,14.2088238 18.658011,14.6106857 18.658011,15.1062738 C18.658011,15.601887 18.2561492,16.0037239 17.760561,16.0037239 L16.8430481,16.0037239 C16.3474349,16.0037239 15.9455981,15.601862 15.9455981,15.1062738 C15.9455981,14.6106607 16.3474599,14.2088238 16.8430481,14.2088238 L17.760561,14.2088238 Z M9.47223795,10.9292646 L10.1209345,11.5735862 C10.6961363,12.1060624 10.2576552,13.135358 9.48861318,13.1080451 C9.26005455,13.1080584 9.03128885,13.0211447 8.8562489,12.847311 L8.20755232,12.2029895 C7.85574115,11.8536221 7.85378487,11.2854766 8.2031577,10.9336592 C8.55252509,10.5820918 9.12067054,10.5801418 9.47223795,10.9292646 Z M16.9206117,10.9339225 C17.2699791,11.2854899 17.2680291,11.8538728 16.9162171,12.2032527 L16.2675205,12.8475742 C16.0922243,13.0211579 15.8637086,13.1080779 15.6349492,13.1080779 L15.6349062,13.1080584 C14.865583,13.1354025 14.4273893,12.1061069 15.0025849,11.5738494 L15.6512815,10.9295279 C16.0030926,10.5801605 16.5712318,10.5821105 16.9206117,10.9339225 Z M12.5617382,9.04637656 C13.0573514,9.04637656 13.4591883,9.44823843 13.4591883,9.94382661 L13.4591883,10.8549644 C13.4591883,11.3505775 13.0575702,11.7524144 12.5617382,11.7524144 C12.0661251,11.7524144 11.6642882,11.3505525 11.6642882,10.8549644 L11.6642882,9.94382661 C11.6642882,9.44821343 12.0661501,9.04637656 12.5617382,9.04637656 Z M18.8549513,4.89969355 L8.25417798,4.89969355 C7.75856479,4.89969355 7.35672792,4.49783167 7.35672792,4.00224349 C7.35672792,3.50663031 7.75858979,3.10479344 8.25417798,3.10479344 L18.8549513,3.10479344 C19.3505645,3.10479344 19.7524013,3.50665531 19.7524013,4.00224349 C19.7521571,4.49785667 19.3505395,4.89969355 18.8549513,4.89969355 Z M26.4038069,4.00224349 C26.4038069,4.49761292 26.0021888,4.89925604 25.5063568,4.89925604 C25.0107436,4.89925604 24.6091568,4.49763792 24.6091568,4.00224349 C24.6091568,3.50687406 25.0107749,3.10523094 25.5063568,3.10523094 C26.0022138,3.10523094 26.4038069,3.50684906 26.4038069,4.00224349 M23.412515,4.00224349 C23.412515,4.49761292 23.0106532,4.89925604 22.515065,4.89925604 C22.0194518,4.89925604 21.6176149,4.49763792 21.6176149,4.00224349 C21.6176149,3.50687406 22.0194768,3.10523094 22.515065,3.10523094 C23.0106782,3.10523094 23.412515,3.50684906 23.412515,4.00224349" id="Combined-Shape" fill="#111827"></path>
                        <path d="M29.3100975,7.92611089 L0.897825061,7.92611089 C0.402211877,7.92611089 0.000375005246,7.52424901 0.000375005246,7.02866083 L0.000375005246,0.897450055 C0.000375005246,0.401836872 0.402236877,0 0.897825061,0 L29.3100975,0 C29.8057107,0 30.2075476,0.401861872 30.2075476,0.897450055 L30.2075476,7.02866083 C30.2075476,7.52427401 29.8056857,7.92611089 29.3100975,7.92611089 Z M1.79533762,6.13114827 L28.41321,6.13114827 L28.41321,1.79490011 L1.79533762,1.79490011 L1.79533762,6.13114827 Z M29.3100975,28.915842 L27.1540674,28.915842 C26.6584542,28.915842 26.2566173,28.5139177 26.2566173,28.0183295 C26.2566173,27.5227163 26.6584792,27.1208794 27.1540674,27.1208794 L28.4126475,27.1208794 L28.4126475,13.6844414 C28.4126475,13.1888283 28.8145094,12.7869914 29.3100975,12.7869914 C29.8057107,12.7869914 30.2075476,13.1888533 30.2075476,13.6844414 L30.2075476,28.018392 C30.2073035,28.5140052 29.8056857,28.915842 29.3100975,28.915842 L29.3100975,28.915842 Z M5.11600907,28.9157795 L0.897450055,28.9157795 C0.401836872,28.9157795 0,28.5139177 0,28.0183295 L0,13.6843789 C0,13.1887658 0.401861872,12.7869289 0.897450055,12.7869289 C1.39306324,12.7869289 1.79490011,13.1887908 1.79490011,13.6843789 L1.79490011,27.1208169 L5.11600907,27.1208169 C5.61162226,27.1208169 6.01345913,27.5226788 6.01345913,28.018267 C6.01345913,28.5138802 5.61159726,28.9157795 5.11600907,28.9157795 L5.11600907,28.9157795 Z M30.2144852,10.4486462 C30.2144852,10.9855162 29.7791791,11.4208473 29.2422841,11.4208473 C28.7053891,11.4208473 28.270333,10.9855412 28.270333,10.4486462 C28.270333,9.91175116 28.7053953,9.47644507 29.2422841,9.47644507 C29.7791729,9.47644507 30.2144852,9.91175116 30.2144852,10.4486462 M1.9515898,10.3742701 C1.9515898,10.9111401 1.51628371,11.3464712 0.979388702,11.3464712 C0.442762444,11.3464712 0.00743760405,10.9111651 0.00743760405,10.3742701 C0.00743760405,9.83715012 0.442743694,9.40206903 0.979388702,9.40206903 C1.51625871,9.40206903 1.9515898,9.83713137 1.9515898,10.3742701" id="Combined-Shape" fill="#00D2F6"></path>
                    </g>
                </g>
            </g>
        </g>
    </g>
</svg>