<?xml version="1.0" encoding="UTF-8"?>
<svg width="35px" height="35px" viewBox="0 0 35 35" version="1.1" xmlns="http://www.w3.org/2000/svg" xmlns:xlink="http://www.w3.org/1999/xlink">
    <title>Group 14</title>
    <g id="updated" stroke="none" stroke-width="1" fill="none" fill-rule="evenodd">
        <g id="Integrated-Fulfilment" transform="translate(-631.000000, -1422.000000)" fill-rule="nonzero">
            <g id="Group-34" transform="translate(70.000000, 1402.000000)">
                <g id="Group-58" transform="translate(545.000000, 0.000000)">
                    <g id="Group-35" transform="translate(16.000000, 20.000000)">
                        <path d="M28.2268639,19.0350096 C30.6037602,19.0350096 32.5371155,20.9632171 32.5371155,23.3333667 L32.5371155,23.3333667 L32.5371155,23.9473855 L35,23.9473855 L35,35 L21.4537278,35 L21.4537278,23.9473855 L23.9166123,23.9473855 L23.9166123,23.3333667 C23.9166123,20.9630296 25.8501556,19.0350096 28.2268639,19.0350096 Z M33.7686518,25.1756982 L22.6854521,25.1756982 L22.6854521,33.7720373 L33.7686518,33.7720373 L33.7686518,25.1756982 Z M28.226701,27.0180923 C29.5874075,27.0180923 30.6895855,28.1172287 30.6895855,29.4741803 C30.6895855,30.5562046 29.9822418,31.4672578 29.0072992,31.7951512 L28.8424064,31.8443298 L28.8424064,32.5442746 C28.8424064,32.8819218 28.56527,33.1582934 28.2266884,33.1582934 C27.918887,33.1582934 27.6618667,32.9298871 27.6176795,32.6346793 L27.6109704,32.5442746 L27.6109955,31.8440798 C26.5518743,31.567952 25.7638165,30.6160671 25.7638165,29.4741803 C25.7638165,28.1172287 26.8659944,27.0180923 28.226701,27.0180923 Z M28.2271146,20.2632724 C26.5278453,20.2632724 25.1485247,21.6385366 25.1485247,23.3333667 L25.1485247,23.3333667 L25.1485247,23.9473855 L31.3057046,23.9473855 L31.3057046,23.3333667 C31.3057046,21.6387866 29.9266347,20.2632724 28.2271146,20.2632724 Z" id="Combined-Shape" fill="#111827"></path>
                        <g id="Group-27" fill="#00D2F6">
                            <path d="M16.6247994,9.34813193 L27.7079991,9.34813193 C28.0465807,9.34813193 28.3237171,9.07176032 28.3237171,8.73411307 C28.3237171,8.39646582 28.0465807,8.12009421 27.7079991,8.12009421 L16.6247994,8.12009421 C16.2862178,8.12009421 16.0090815,8.39646582 16.0090815,8.73411307 C16.0090815,9.07176032 16.2862178,9.34813193 16.6247994,9.34813193 Z" id="Path"></path>
                            <path d="M16.6247994,17.2390549 L27.7079991,17.2390549 C28.0465807,17.2390549 28.3237171,16.9626832 28.3237171,16.625036 C28.3237171,16.2873888 28.0465807,16.0110171 27.7079991,16.0110171 L16.6247994,16.0110171 C16.2862178,16.0110171 16.0090815,16.2873888 16.0090815,16.625036 C16.0090815,16.962927 16.2862178,17.2390549 16.6247994,17.2390549 Z" id="Path"></path>
                            <g id="Group-49" transform="translate(4.618298, 5.663652)">
                                <path d="M8.05367737,0.147698361 C7.79514876,-0.0732539278 7.4071365,-0.0427348617 7.18552264,0.215324061 L3.33723819,4.69168292 L0.985035261,2.92947717 C0.714022075,2.72683757 0.326210365,2.78201314 0.12302255,3.05227844 C-0.0801777994,3.32254374 -0.0248495443,3.70928525 0.246163642,3.91191235 L3.06008299,6.01812166 C3.17098392,6.09795374 3.30024823,6.14092293 3.42951253,6.14092293 C3.60186493,6.14092293 3.77421734,6.06719092 3.89735843,5.92607696 L8.1214338,1.01365108 C8.34299751,0.755592157 8.31214957,0.368894402 8.05362096,0.147704611 L8.05367737,0.147698361 Z" id="Path"></path>
                                <path d="M8.05367737,8.03862129 C7.79514876,7.81766901 7.4071365,7.84818807 7.18552264,8.10624699 L3.33723819,12.5826059 L0.985035261,10.8204001 C0.714022075,10.6177605 0.326210365,10.6729361 0.12302255,10.9432014 C-0.0801777994,11.2134667 -0.0248495443,11.6002082 0.246163642,11.8028353 L3.06008299,13.9090446 C3.17098392,13.9888767 3.30024823,14.0318459 3.42951253,14.0318459 C3.60186493,14.0318459 3.77421734,13.9581139 3.89735843,13.8169999 L8.1214338,8.90457401 C8.34299751,8.64651509 8.31214957,8.25981733 8.05362096,8.03862754 L8.05367737,8.03862129 Z" id="Path"></path>
                                <path d="M7.18502126,15.9970979 L3.3367368,20.4734568 L0.984533872,18.711251 C0.713520686,18.5086114 0.325708976,18.563787 0.122521162,18.8340523 C-0.0806791882,19.1043176 -0.0253509331,19.4910591 0.245662253,19.6936862 L3.0595816,21.7998955 C3.17048254,21.8797276 3.29974684,21.9226968 3.42901114,21.9226968 C3.60136354,21.9226968 3.77371595,21.8489648 3.89685704,21.7078508 L8.12093241,16.7954249 C8.34249612,16.5376098 8.3118926,16.1506683 8.05311957,15.929666 C7.79459097,15.7084699 7.4065787,15.7392328 7.18496485,15.9970479 L7.18502126,15.9970979 Z" id="Path"></path>
                            </g>
                            <path d="M7.49952312,0 C3.36181197,0 0,3.36185183 0,7.49947223 L0,25.7561684 C0,29.8877095 3.36187464,33.25 7.49952312,33.25 L16.6247994,33.25 C16.963381,33.25 17.2405174,32.9728655 17.2405174,32.6342862 C17.2405174,32.2957069 16.963381,32.0185724 16.6247994,32.0185724 L7.49952312,32.0185724 C4.03925092,32.0185724 1.23153626,29.2107514 1.23153626,25.7500013 L1.23153626,7.4995725 C1.23153626,4.0390731 4.03937627,1.23100145 7.49952312,1.23100145 L25.7563431,1.23100145 C29.210724,1.23100145 32.018564,4.0388224 32.018564,7.4995725 L32.018564,16.0971282 C32.018564,16.4357075 32.2957004,16.7128421 32.634282,16.7128421 C32.9728636,16.7128421 33.25,16.4357075 33.25,16.0971282 L33.25,7.4995725 C33.25,3.36170141 29.8881254,0 25.7504769,0" id="Path"></path>
                        </g>
                    </g>
                </g>
            </g>
        </g>
    </g>
</svg>