<?xml version="1.0" encoding="UTF-8"?>
<svg width="45px" height="35px" viewBox="0 0 45 35" version="1.1" xmlns="http://www.w3.org/2000/svg" xmlns:xlink="http://www.w3.org/1999/xlink">
    <title>Group 41</title>
    <g id="updated" stroke="none" stroke-width="1" fill="none" fill-rule="evenodd">
        <g id="Integrated-Fulfilment" transform="translate(-903.000000, -1954.000000)" fill-rule="nonzero">
            <g id="Group-34" transform="translate(70.000000, 1402.000000)">
                <g id="Group-58" transform="translate(545.000000, 0.000000)">
                    <g id="Group-41" transform="translate(288.500000, 552.000000)">
                        <path d="M44.3404216,34.2608018 C44.3404216,34.4566897 44.2625837,34.6448444 44.1239209,34.7834993 C43.9852581,34.9221542 43.7976127,35 43.6012234,35 L0.739211351,35 C0.330940129,35 0,34.6690599 0,34.2607886 L0,0.739211351 C0,0.330940129 0.330940129,0 0.739211351,0 C1.14695472,0 1.47790804,0.330940129 1.47790804,0.739211351 L1.47790804,33.5204688 L43.6009199,33.5204688 C43.7973224,33.5204688 43.9849625,33.5983066 44.1236174,33.7369695 C44.2622723,33.8756323 44.3404216,34.0637923 44.3404216,34.259667 L44.3404216,34.2608018 Z" id="Path" fill="#00D2F6"></path>
                        <path d="M4.43441034,28.2677741 L11.4476543,17.034839 L11.4471388,17.034839 C11.0048472,16.5580123 10.7574141,15.9332404 10.7527821,15.2832765 C10.7527821,14.3409721 11.2553815,13.4698228 12.0719107,12.9987101 C12.8879253,12.5275579 13.8936782,12.5275579 14.7101415,12.9987101 C15.526156,13.4698624 16.02927,14.3410512 16.02927,15.2832765 C16.0359713,15.8085605 15.8838981,16.3240395 15.5931675,16.761145 L19.9015387,21.7788244 L19.9015387,21.7793399 C20.240212,21.6241762 20.6082737,21.5437571 20.9804527,21.5427278 C21.3634527,21.5453054 21.7418208,21.630876 22.0887418,21.7937636 L27.6163314,15.4676578 L27.616847,15.4681733 C27.2688967,14.9269084 27.1307432,14.2768918 27.2281725,13.6412592 C27.3261151,13.0051516 27.6529392,12.4267784 28.1467629,12.0149309 C28.6411145,11.603057 29.2689743,11.3860417 29.9123136,11.4045959 C30.555125,11.4231527 31.1695773,11.675743 31.6391987,12.1154481 C32.108807,12.5551532 32.4015962,13.1515792 32.4624318,13.7923188 C32.5232594,14.4325569 32.3479936,15.0732965 31.9696242,15.5933679 L33.2995607,17.3007223 C33.6073015,17.1780363 33.9361829,17.115154 34.2676377,17.1161834 C34.5418728,17.1177297 34.8145639,17.165154 35.0733459,17.2563954 L42.271076,6.64408853 C42.5035575,6.3131484 42.9592435,6.23118536 43.2932848,6.45954962 C43.6267982,6.68842854 43.7149504,7.14257056 43.490202,7.47918515 L36.2924719,18.0466242 L36.2924719,18.0471397 C36.7120789,18.5554134 36.9254916,19.2028568 36.8909565,19.8611212 C36.8559041,20.5193989 36.5754826,21.1405549 36.1043304,21.6014667 C35.6336928,22.0628272 35.0063476,22.3303585 34.3476213,22.3514992 C33.688829,22.3726346 33.0460176,22.1453049 32.5469681,21.7153915 C32.0474568,21.2849635 31.7273509,20.6833909 31.6505345,20.0287555 C31.5737273,19.3740937 31.7458998,18.7142721 32.1319931,18.1801993 L30.8020567,16.4657188 L30.8015412,16.4657188 C30.4968884,16.590466 30.1705934,16.6554175 29.8411972,16.6579908 C29.4576825,16.6548978 29.0798291,16.5693266 28.7323934,16.4064404 L23.1971499,22.7325461 L23.1976653,22.7325461 C23.485308,23.1500944 23.6420156,23.6439181 23.6482047,24.1511626 C23.6482047,25.0939817 23.1456054,25.9646163 22.3290762,26.4362568 C21.5130616,26.907409 20.5073087,26.907409 19.6908454,26.4362568 C18.8748308,25.9645899 18.3717169,25.0939157 18.3717169,24.1511626 C18.3650154,23.6258786 18.5170888,23.1109142 18.8078194,22.6732942 L14.4994481,17.6556147 C14.1607749,17.8102637 13.7932279,17.8911974 13.4205342,17.8922267 C13.1710425,17.8901648 12.9225801,17.8556278 12.6818375,17.7886136 L5.67585164,29.0215488 C5.43821029,29.2859921 5.0464478,29.3437265 4.74282429,29.1591875 C4.43868611,28.9746486 4.3092951,28.6003978 4.43456883,28.2679137 L4.43441034,28.2677741 Z" id="Path" fill="#00D2F6"></path>
                        <path d="M11.1740773,15.2939411 C11.1681672,16.1922572 11.7049979,17.0048898 12.5333652,17.3525917 C13.360749,17.7002936 14.3171878,17.5141297 14.9535108,16.8807772 C15.590792,16.248413 15.7828867,15.2929577 15.4410853,14.463607 C15.0983004,13.6332477 14.2886434,13.0915095 13.3913107,13.0915095 C12.1718954,13.0915095 11.1819699,14.0755092 11.1740773,15.2939663 L11.1740773,15.2939411 Z" id="Path" fill="#111827"></path>
                        <path d="M18.8153097,24.1731105 C18.8093996,25.0714267 19.3462303,25.8840592 20.1745975,26.2317611 C21.0019813,26.5794631 21.9584201,26.3932992 22.5947431,25.7599466 C23.2320244,25.1275824 23.424119,24.1721271 23.0823176,23.3427764 C22.7395328,22.5124171 21.9298757,21.9706789 21.032543,21.9706789 C19.8131277,21.9706789 18.8232022,22.9546786 18.8153097,24.1731357 L18.8153097,24.1731105 Z" id="Path-Copy" fill="#111827"></path>
                        <path d="M27.6463012,14.0302391 C27.6403911,14.9285552 28.1772218,15.7411878 29.005589,16.0888897 C29.8329729,16.4365916 30.7894116,16.2504277 31.4257346,15.6170751 C32.0630159,14.984711 32.2551105,14.0292557 31.9133091,13.199905 C31.5705243,12.3695457 30.7608672,11.8278075 29.8635345,11.8278075 C28.6441192,11.8278075 27.6541937,12.8118072 27.6463012,14.0302643 L27.6463012,14.0302391 Z" id="Path-Copy-2" fill="#111827"></path>
                        <path d="M32.0803433,19.7168981 C32.0744332,20.6152143 32.6112639,21.4278468 33.4396312,21.7755488 C34.267015,22.1232507 35.2234538,21.9370868 35.8597768,21.3037342 C36.497058,20.6713701 36.6891527,19.7159147 36.3473513,18.8865641 C36.0045665,18.0562047 35.1949094,17.5144665 34.2975767,17.5144665 C33.0781614,17.5144665 32.0882359,18.4984663 32.0803433,19.7169234 L32.0803433,19.7168981 Z" id="Path-Copy-2" fill="#111827"></path>
                    </g>
                </g>
            </g>
        </g>
    </g>
</svg>